<svg width="90" height="52" viewBox="0 0 90 52" fill="none" xmlns="http://www.w3.org/2000/svg">
<path d="M34.682 0.000576019C6.57058 -0.000427246 -0.00307965 12.7893 4.65712 25.5789C10.745 42.2852 36.007 58.9919 57.4967 47.1901C69.1105 40.8123 89.1343 28.6448 89.5322 17.7301C89.9967 5.00128 54.7832 0.00376892 34.6957 0.000576019H34.682Z" fill="url(#paint0_radial_19616_83157)"></path>
<mask id="mask0_19616_83157" style="mask-type:luminance" maskUnits="userSpaceOnUse" x="3" y="0" width="87" height="52">
<path d="M34.683 0.000576019C6.57156 -0.000427246 -0.00210309 12.7893 4.6581 25.5789C10.746 42.2852 36.008 58.9919 57.4977 47.1901C69.1115 40.8123 89.1352 28.6448 89.5331 17.7301C89.9977 5.00128 54.7842 0.00376892 34.6967 0.000576019H34.683Z" fill="white"></path>
</mask>
<g mask="url(#mask0_19616_83157)">
<mask id="mask1_19616_83157" style="mask-type:luminance" maskUnits="userSpaceOnUse" x="28" y="31" width="60" height="6">
<path d="M28.3008 31.739H87.5557V36.6309H28.3008V31.739Z" fill="white"></path>
</mask>
<g mask="url(#mask1_19616_83157)">
<g opacity="0.300003">
<mask id="mask2_19616_83157" style="mask-type:luminance" maskUnits="userSpaceOnUse" x="28" y="31" width="60" height="6">
<path d="M28.3018 36.6309H87.5556V31.739H28.3018V36.6309Z" fill="white"></path>
</mask>
<g mask="url(#mask2_19616_83157)">
<path d="M29.431 34.6083C47.0412 30.5777 77.5649 31.5842 86.5285 32.8911C89.3173 33.2964 85.8653 37.1116 82.886 36.5802C68.6172 34.0361 48.7469 33.7021 29.1136 36.289C27.7578 36.4687 28.2643 34.875 29.431 34.6083Z" fill="black"></path>
</g>
</g>
</g>
</g>
<mask id="mask3_19616_83157" style="mask-type:luminance" maskUnits="userSpaceOnUse" x="0" y="0" width="90" height="59">
<path d="M0 58.9922H90V-0.000106812H0V58.9922Z" fill="white"></path>
</mask>
<g mask="url(#mask3_19616_83157)">
<mask id="mask4_19616_83157" style="mask-type:luminance" maskUnits="userSpaceOnUse" x="13" y="15" width="69" height="17">
<path d="M13.0889 15.8767H81.8795V31.6641H13.0889V15.8767Z" fill="white"></path>
</mask>
<g mask="url(#mask4_19616_83157)">
<g opacity="0.309998">
<mask id="mask5_19616_83157" style="mask-type:luminance" maskUnits="userSpaceOnUse" x="13" y="15" width="69" height="17">
<path d="M13.0918 31.6641H81.8821V15.8767H13.0918V31.6641Z" fill="white"></path>
</mask>
<g mask="url(#mask5_19616_83157)">
<path d="M16.9051 18.2554C16.4582 18.2554 15.9958 18.2722 15.4215 18.3223V21.7236H17.0804C18.1492 21.7236 19.0902 21.6062 19.0902 19.9475C19.0902 18.6741 18.4521 18.2554 16.9051 18.2554ZM17.5749 23.6336H15.4215V27.6045H13.0928V16.5128C14.002 16.4124 15.5172 16.295 16.889 16.295C19.2336 16.295 21.3711 17.0489 21.3711 19.8806C21.3711 22.1087 20.3024 23.6336 17.5749 23.6336Z" fill="black"></path>
<path d="M26.6178 23.4996C25.565 23.4996 23.7467 23.5331 23.7467 25.0744C23.7467 25.7951 24.1773 26.2307 24.8633 26.2307C25.5332 26.2307 26.0594 25.9961 26.6178 25.5773V23.4996ZM28.1012 27.8223C27.5428 27.6714 27.0804 27.4203 26.8571 26.8169H26.8251C26.0436 27.4537 25.1823 27.8055 24.1773 27.8055C22.6619 27.8055 21.5615 26.9176 21.5615 25.2422C21.5615 22.4609 24.5602 22.1927 26.5698 22.1927V21.6734C26.554 20.9531 26.1234 20.7185 25.3737 20.7185C24.3369 20.7185 23.2841 21.0869 22.4546 21.5896L21.7528 20.0146C22.997 19.3613 24.1773 19.0093 25.597 19.0093C27.9417 19.0093 28.8189 19.9644 28.8189 22.3937V25.3426C28.8189 25.8955 29.09 26.1303 29.5208 26.3814L28.1012 27.8223Z" fill="black"></path>
<path d="M40.0303 27.6045V22.7959C40.0303 21.6902 39.8069 20.9864 38.8181 20.9864C38.0684 20.9864 37.4143 21.355 37.4143 22.3603V27.6045H35.1653V22.7792C35.1653 21.6566 34.974 20.9864 33.9372 20.9864C33.2035 20.9864 32.5654 21.489 32.5654 22.3771V27.6045H30.3164V19.1937H32.3103L32.4698 20.2157H32.5016C32.7726 19.6126 33.379 19.0093 34.5752 19.0093C35.596 19.0093 36.3139 19.378 36.7445 20.2492C37.3665 19.3277 38.1162 19.0093 39.1848 19.0093C41.2744 19.0093 42.2792 20.2326 42.2792 22.5447V27.6045H40.0303Z" fill="black"></path>
<path d="M47.4155 20.8192C46.4745 20.8192 45.8683 21.2382 45.8683 22.3105V24.1535C45.8683 25.3095 46.2034 26.0636 47.3836 26.0636C48.8991 26.0636 49.1064 24.6394 49.1064 23.3493C49.1064 22.0257 48.9307 20.8192 47.4155 20.8192ZM47.926 27.7892C46.9371 27.7892 46.4425 27.521 45.9321 26.717L45.9003 26.7002V31.4775L43.6514 31.6641V19.194H45.5334L45.677 20.1995H45.7089C46.2831 19.3282 47.0009 19.0098 48.0056 19.0098C50.462 19.0098 51.3872 21.0204 51.3872 23.3158C51.3872 25.7284 50.462 27.7892 47.926 27.7892Z" fill="black"></path>
<path d="M54.3866 27.7061C52.9031 27.7061 52.4248 27.1867 52.4248 25.7792V15.8772H54.6737V25.2263C54.6737 25.7289 54.8015 25.7792 55.2321 25.7792H56.0135V27.6055C55.6149 27.6725 55.0566 27.7061 54.3866 27.7061Z" fill="black"></path>
<path d="M60.3812 26.0131C61.7371 26.0131 62.2155 25.0748 62.2155 23.3994C62.2155 21.7574 61.7531 20.8527 60.3812 20.8527C58.9935 20.8527 58.5309 21.7574 58.5309 23.3994C58.5309 25.0748 58.9935 26.0131 60.3812 26.0131ZM60.3652 19.0097C63.061 19.0097 64.4964 20.6683 64.4964 23.3994C64.4964 25.9963 63.1565 27.7891 60.3652 27.7891C57.5899 27.7891 56.25 26.0131 56.25 23.3994C56.25 20.9533 57.4463 19.0097 60.3652 19.0097Z" fill="black"></path>
<path d="M70.7341 27.6045V22.8964C70.7341 21.774 70.5747 20.9864 69.3463 20.9864C68.3255 20.9864 67.7833 21.5058 67.7833 22.5781V27.6045H65.5342V19.1937H67.4802L67.6238 20.199H67.6558C68.2457 19.311 68.9954 19.0093 70.0483 19.0093C72.2494 19.0093 72.9831 20.3665 72.9831 22.5278V27.6045H70.7341Z" fill="black"></path>
<path d="M78.9791 23.4996C77.9263 23.4996 76.108 23.5331 76.108 25.0744C76.108 25.7951 76.5388 26.2307 77.2245 26.2307C77.8945 26.2307 78.4207 25.9961 78.9791 25.5773V23.4996ZM80.4625 27.8223C79.9041 27.6714 79.4417 27.4203 79.2184 26.8169H79.1864C78.4048 27.4537 77.5436 27.8055 76.5388 27.8055C75.0232 27.8055 73.9229 26.9176 73.9229 25.2422C73.9229 22.4609 76.9214 22.1927 78.9311 22.1927V21.6734C78.9153 20.9531 78.4847 20.7185 77.735 20.7185C76.6981 20.7185 75.6454 21.0869 74.8159 21.5896L74.1141 20.0146C75.3583 19.3613 76.5388 19.0093 77.9582 19.0093C80.3029 19.0093 81.1802 19.9644 81.1802 22.3937V25.3426C81.1802 25.8955 81.4513 26.1303 81.8821 26.3814L80.4625 27.8223Z" fill="black"></path>
</g>
</g>
</g>
<path d="M16.4168 17.7505C15.9699 17.7505 15.5075 17.7673 14.9332 17.8175V21.2187H16.5921C17.6609 21.2187 18.6019 21.1013 18.6019 19.4427C18.6019 18.1693 17.9638 17.7505 16.4168 17.7505ZM17.0867 23.1287H14.9332V27.0996H12.6045V16.008C13.5137 15.9075 15.0289 15.7902 16.4008 15.7902C18.7453 15.7902 20.8829 16.5441 20.8829 19.3758C20.8829 21.6039 19.8141 23.1287 17.0867 23.1287Z" fill="white"></path>
<path d="M26.1294 22.9947C25.0767 22.9947 23.2584 23.0282 23.2584 24.5695C23.2584 25.2902 23.689 25.7258 24.3749 25.7258C25.0449 25.7258 25.5711 25.4912 26.1294 25.0724V22.9947ZM27.6129 27.3174C27.0545 27.1665 26.5921 26.9154 26.3688 26.3121H26.3368C25.5552 26.9488 24.694 27.3006 23.689 27.3006C22.1736 27.3006 21.0732 26.4127 21.0732 24.7373C21.0732 21.956 24.0718 21.6879 26.0815 21.6879V21.1685C26.0657 20.4482 25.635 20.2136 24.8853 20.2136C23.8485 20.2136 22.7957 20.5819 21.9663 21.0847L21.2646 19.5097C22.5087 18.8564 23.689 18.5044 25.1086 18.5044C27.4533 18.5044 28.3306 19.4595 28.3306 21.8888V24.8377C28.3306 25.3906 28.6017 25.6254 29.0325 25.8765L27.6129 27.3174Z" fill="white"></path>
<path d="M39.5439 27.0996V22.291C39.5439 21.1853 39.3206 20.4816 38.3318 20.4816C37.5821 20.4816 36.9279 20.8501 36.9279 21.8554V27.0996H34.679V22.2744C34.679 21.1517 34.4877 20.4816 33.4509 20.4816C32.7172 20.4816 32.079 20.9841 32.079 21.8722V27.0996H29.8301V18.6888H31.8239L31.9835 19.7109H32.0153C32.2864 19.1077 32.8927 18.5044 34.0888 18.5044C35.1097 18.5044 35.8276 18.8732 36.2582 19.7443C36.8802 18.8228 37.6299 18.5044 38.6985 18.5044C40.788 18.5044 41.7929 19.7277 41.7929 22.0398V27.0996H39.5439Z" fill="white"></path>
<path d="M46.9273 20.3134C45.9862 20.3134 45.3801 20.7324 45.3801 21.8046V23.6477C45.3801 24.8037 45.7151 25.5578 46.8953 25.5578C48.4108 25.5578 48.6182 24.1336 48.6182 22.8435C48.6182 21.5199 48.4425 20.3134 46.9273 20.3134ZM47.4377 27.2834C46.4488 27.2834 45.9543 27.0152 45.4438 26.2111L45.412 26.1943V30.9716L43.1631 31.1582V18.6882H45.0452L45.1887 19.6937H45.2207C45.7949 18.8224 46.5126 18.504 47.5174 18.504C49.9737 18.504 50.8989 20.5146 50.8989 22.8099C50.8989 25.2226 49.9737 27.2834 47.4377 27.2834Z" fill="white"></path>
<path d="M53.8974 27.2002C52.4139 27.2002 51.9355 26.6808 51.9355 25.2734V15.3714H54.1844V24.7205C54.1844 25.223 54.3122 25.2734 54.7429 25.2734H55.5243V27.0996C55.1257 27.1666 54.5673 27.2002 53.8974 27.2002Z" fill="white"></path>
<path d="M59.8929 25.5082C61.2487 25.5082 61.7272 24.5699 61.7272 22.8945C61.7272 21.2525 61.2648 20.3478 59.8929 20.3478C58.5052 20.3478 58.0426 21.2525 58.0426 22.8945C58.0426 24.5699 58.5052 25.5082 59.8929 25.5082ZM59.8769 18.5048C62.5727 18.5048 64.0081 20.1634 64.0081 22.8945C64.0081 25.4914 62.6683 27.2842 59.8769 27.2842C57.1016 27.2842 55.7617 25.5082 55.7617 22.8945C55.7617 20.4484 56.9581 18.5048 59.8769 18.5048Z" fill="white"></path>
<path d="M70.2459 27.0996V22.3916C70.2459 21.2691 70.0864 20.4816 68.8581 20.4816C67.8372 20.4816 67.295 21.0009 67.295 22.0732V27.0996H65.0459V18.6888H66.9919L67.1355 19.6941H67.1675C67.7574 18.8062 68.5071 18.5044 69.56 18.5044C71.7611 18.5044 72.4948 19.8617 72.4948 22.023V27.0996H70.2459Z" fill="white"></path>
<path d="M78.4908 22.9947C77.4381 22.9947 75.6197 23.0282 75.6197 24.5695C75.6197 25.2902 76.0505 25.7258 76.7362 25.7258C77.4062 25.7258 77.9325 25.4912 78.4908 25.0724V22.9947ZM79.9742 27.3174C79.4158 27.1665 78.9534 26.9154 78.7301 26.3121H78.6981C77.9166 26.9488 77.0553 27.3006 76.0505 27.3006C74.5349 27.3006 73.4346 26.4127 73.4346 24.7373C73.4346 21.956 76.4332 21.6879 78.4428 21.6879V21.1685C78.427 20.4482 77.9964 20.2136 77.2467 20.2136C76.2098 20.2136 75.1571 20.5819 74.3276 21.0847L73.6258 19.5097C74.87 18.8564 76.0505 18.5044 77.47 18.5044C79.8147 18.5044 80.6919 19.4595 80.6919 21.8888V24.8377C80.6919 25.3906 80.963 25.6254 81.3938 25.8765L79.9742 27.3174Z" fill="white"></path>
</g>
<path d="M62.7061 30.8622C51.1823 30.8622 38.0842 31.5779 28.675 33.7314C27.5083 33.9979 27.0021 35.5916 28.3576 35.4119C47.9908 32.825 67.8612 33.1591 82.1301 35.7033C85.1092 36.2345 88.5614 32.4195 85.7725 32.014C81.5989 31.4058 72.753 30.8622 62.7111 30.8622H62.7061Z" fill="url(#paint1_linear_19616_83157)"></path>
<mask id="mask6_19616_83157" style="mask-type:luminance" maskUnits="userSpaceOnUse" x="0" y="0" width="90" height="59">
<path d="M0 58.9922H90V-0.000106812H0V58.9922Z" fill="white"></path>
</mask>
<g mask="url(#mask6_19616_83157)">
<mask id="mask7_19616_83157" style="mask-type:luminance" maskUnits="userSpaceOnUse" x="28" y="31" width="59" height="6">
<path d="M28.4023 31.739H86.7945V36.0908H28.4023V31.739Z" fill="white"></path>
</mask>
<g mask="url(#mask7_19616_83157)">
<mask id="mask8_19616_83157" style="mask-type:luminance" maskUnits="userSpaceOnUse" x="28" y="31" width="59" height="5">
<path d="M63.2265 31.7381C51.7567 31.7473 38.773 32.4675 29.424 34.6072C28.9387 34.7183 28.5706 35.0591 28.4004 35.4062C48.019 32.8256 67.8696 33.1612 82.1274 35.7033C84.2894 36.0887 86.6977 34.186 86.792 32.958V32.9467C86.7087 32.9242 86.6199 32.9043 86.5216 32.8904C82.3796 32.2863 73.631 31.7462 63.6829 31.7381H63.2265Z" fill="white"></path>
</mask>
<g mask="url(#mask8_19616_83157)">
<mask id="mask9_19616_83157" style="mask-type:luminance" maskUnits="userSpaceOnUse" x="28" y="31" width="59" height="6">
<mask id="mask10_19616_83157" style="mask-type:luminance" maskUnits="userSpaceOnUse" x="28" y="31" width="59" height="6">
<path d="M28.3965 31.7391H86.7887V36.0908H28.3965V31.7391Z" fill="white"></path>
</mask>
<g mask="url(#mask10_19616_83157)">
<path d="M28.3965 31.7391H86.7889V36.0908H28.3965V31.7391Z" fill="black"></path>
<mask id="mask11_19616_83157" style="mask-type:luminance" maskUnits="userSpaceOnUse" x="28" y="31" width="59" height="6">
<path d="M28.3936 31.7391H86.7858V36.0908H28.3936V31.7391Z" fill="white"></path>
</mask>
<g mask="url(#mask11_19616_83157)">
<path d="M28.3906 30.5776H86.7831V36.0908H28.3906V30.5776Z" fill="url(#paint2_linear_19616_83157)"></path>
</g>
</g>
</mask>
<g mask="url(#mask9_19616_83157)">
<mask id="mask12_19616_83157" style="mask-type:luminance" maskUnits="userSpaceOnUse" x="28" y="31" width="59" height="6">
<path d="M28.3965 31.7391H86.7887V36.0908H28.3965V31.7391Z" fill="white"></path>
</mask>
<g mask="url(#mask12_19616_83157)">
<path d="M28.3936 31.7391H86.786V36.0908H28.3936V31.7391Z" fill="url(#paint3_linear_19616_83157)"></path>
</g>
</g>
</g>
</g>
</g>
<defs>
<radialGradient id="paint0_radial_19616_83157" cx="0" cy="0" r="1" gradientUnits="userSpaceOnUse" gradientTransform="translate(46.8358 20.5216) rotate(3.5367) scale(45.8044 27.6912)">
<stop stop-color="#53B7E8"></stop>
<stop offset="0.333303" stop-color="#0089CF"></stop>
<stop offset="0.460298" stop-color="#0089CF"></stop>
<stop offset="0.948955" stop-color="#001C54"></stop>
<stop offset="1" stop-color="#001C54"></stop>
</radialGradient>
<linearGradient id="paint1_linear_19616_83157" x1="27.5458" y1="33.5483" x2="86.8001" y2="33.5483" gradientUnits="userSpaceOnUse">
<stop stop-color="#BFD730"></stop>
<stop offset="0.3" stop-color="#BFD730"></stop>
<stop offset="0.95037" stop-color="#409A3C"></stop>
<stop offset="1" stop-color="#409A3C"></stop>
</linearGradient>
<linearGradient id="paint2_linear_19616_83157" x1="28.3906" y1="33.3342" x2="86.7831" y2="33.3342" gradientUnits="userSpaceOnUse">
<stop stop-color="#9A999E"></stop>
<stop offset="0.3" stop-color="#9A999E"></stop>
<stop offset="1" stop-color="white"></stop>
</linearGradient>
<linearGradient id="paint3_linear_19616_83157" x1="28.3935" y1="33.9149" x2="86.7859" y2="33.9149" gradientUnits="userSpaceOnUse">
<stop stop-color="#BFD730"></stop>
<stop offset="0.3" stop-color="#BFD730"></stop>
<stop offset="0.95037" stop-color="#409A3C"></stop>
<stop offset="1" stop-color="#409A3C"></stop>
</linearGradient>
</defs>
</svg>
