<svg width="335" height="78" viewBox="0 0 335 78" fill="none" xmlns="http://www.w3.org/2000/svg">
<path d="M157.009 9.27576H174.766V68.9546H157.009V9.27576Z" fill="#01438F"/>
<path d="M268.253 60.0458H245.95L242.973 68.9447H224.345L247.963 9.26579H266.156L289.853 68.9447H271.31L268.253 60.0458ZM264.234 48.3392L257.064 27.3238L249.978 48.3392H264.234Z" fill="#01438F"/>
<path d="M293.708 9.27576H311.465V54.2812H334.311V68.9546H293.717V9.27576H293.708Z" fill="#01438F"/>
<path d="M209.3 9.28241H181.231V68.9528H198.988V52.4165H209.299C222.853 52.4165 232.379 42.9571 232.379 30.8499C232.379 18.7426 222.846 9.28241 209.3 9.28241ZM208.339 38.5205H198.99V23.1784H208.34C209.363 23.1544 210.38 23.335 211.331 23.7097C212.283 24.0843 213.15 24.6455 213.882 25.3602C214.614 26.0749 215.195 26.9287 215.592 27.8714C215.989 28.8141 216.194 29.8266 216.194 30.8495C216.194 31.8723 215.989 32.8848 215.592 33.8275C215.195 34.7702 214.614 35.624 213.882 36.3387C213.15 37.0534 212.283 37.6146 211.331 37.9893C210.38 38.364 209.362 38.5446 208.339 38.5205Z" fill="#01438F"/>
<path d="M153.192 9.27576H133.865L120.395 49.2533L107.017 9.27576H87.8394L111.195 68.9546H129.578L153.192 9.27576Z" fill="#01438F"/>
<path d="M20.2312 37.604C27.3259 26.3031 38.5307 13.1675 55.4242 4.32648C55.0066 4.15126 54.5889 3.96753 54.1543 3.79996C45.8663 0.632493 36.7185 0.53502 28.3649 3.52517C20.0113 6.51532 13.0033 12.3957 8.60791 20.1032C11.5739 29.7037 16.6375 34.7426 20.2227 37.5921L20.2312 37.604Z" fill="#01438F"/>
<path d="M35.2222 75.2112C41.4611 76.1757 47.8429 75.5337 53.7647 73.3459C59.6865 71.1581 64.9528 67.4967 69.0661 62.7076C73.1793 57.9185 76.0038 52.1599 77.2726 45.9757C78.5414 39.7914 78.2126 33.3859 76.3174 27.364C49.4857 36.9068 38.1465 66.178 35.2307 75.2112H35.2222Z" fill="#01438F"/>
<path d="M31.89 77.0573C29.8095 76.3641 10.3565 68.7267 0.621582 45.9309L3.33751 44.769C12.0696 61.3725 27.8455 68.4587 28.013 68.5174L28.1883 68.5846L28.2469 68.4009C28.3805 67.9833 42.0766 26.6124 78.5005 17.6208L80.6984 23.2526C44.6913 32.0434 32.7338 73.8991 31.8815 77.0411L31.89 77.0573Z" fill="#01438F"/>
<path d="M26.5161 64.2486C14.3679 57.4461 5.27995 46.2566 1.11328 32.9717L3.92022 32.1024C11.8758 49.4671 23.6913 55.0988 23.8171 55.149L23.9592 55.2162L24.034 55.0742C24.034 55.0742 24.8361 53.6537 25.9555 51.4166C29.8682 43.57 44.9653 17.3574 75.1475 9.06847L77.3701 14.7589C51.6177 21.9004 37.5958 42.1299 31.5294 53.578C29.6229 57.0165 27.9481 60.5784 26.5161 64.2401V64.2486Z" fill="#01438F"/>
<path d="M71.8432 0.616163C45.1952 8.43731 29.5359 27.0626 21.087 41.327L20.9866 41.4971L20.8276 41.3797C17.3444 38.8534 9.206 32.9708 5.49575 18.9038L2.65479 19.4141C6.9579 40.4126 21.0275 49.9306 22.7286 51.0083C24.03 48.249 40.1401 15.3475 74.0326 6.18921L71.8517 0.599152L71.8432 0.616163Z" fill="#01438F"/>
</svg>
