<svg xmlns="http://www.w3.org/2000/svg" width="119" height="79" viewBox="0 0 119 79" fill="none"><path d="M39.3628 7.03374C39.1214 6.43919 38.7971 5.93472 38.3899 5.51314C37.9827 5.09515 37.5287 4.78166 37.0314 4.57627C36.5342 4.37448 36.0009 4.27359 35.4243 4.27719C34.8514 4.2844 34.2749 4.40331 33.7019 4.63753C33.1182 4.87895 32.6137 5.19965 32.1958 5.61043C31.7742 6.0176 31.4607 6.46802 31.2589 6.96528C31.0535 7.46254 30.9562 7.99943 30.9598 8.57957C30.967 9.15971 31.0895 9.73624 31.3274 10.3164C31.5652 10.8929 31.8823 11.3938 32.2822 11.8118C32.6822 12.2297 33.129 12.5468 33.6263 12.7594C34.1199 12.972 34.6604 13.0765 35.2442 13.0765C35.8279 13.0765 36.4117 12.954 37.0026 12.7126C37.9359 12.3342 38.6457 11.7541 39.1322 10.9758L40.4726 11.4658L40.8618 10.0786L39.6655 9.65697C39.8348 8.80298 39.7375 7.92737 39.37 7.03014L39.3628 7.03374ZM37.5179 10.3884C37.2368 10.7812 36.8693 11.0695 36.4044 11.2604C36.1342 11.3722 35.8567 11.437 35.5757 11.455C35.2946 11.473 35.0244 11.4442 34.7649 11.3685C34.5055 11.2929 34.2605 11.1812 34.0299 11.0262C33.7992 10.8749 33.5902 10.6803 33.4065 10.4461C33.2191 10.2119 33.0678 9.94884 32.9453 9.65697C32.7975 9.29303 32.7182 8.92549 32.7074 8.55795C32.7002 8.19041 32.7543 7.84809 32.8768 7.5346C32.9957 7.21751 33.1795 6.93645 33.4209 6.68422C33.6659 6.43198 33.9578 6.23741 34.2965 6.10048C34.7577 5.91311 35.2226 5.85906 35.6802 5.93833C36.1414 6.0176 36.5486 6.21579 36.9089 6.52567C37.2656 6.83916 37.5431 7.23192 37.7377 7.70396C37.9214 8.15438 38.0007 8.6156 37.9755 9.07683L36.9413 8.7165L36.5306 10.0353L37.5215 10.3956L37.5179 10.3884Z" fill="#BE1E28"></path><path d="M47.9243 0.763672L46.2704 1.10599L47.2613 5.89842C47.3946 6.55422 47.3405 7.10193 47.0955 7.54514C46.8541 7.98835 46.4721 8.26581 45.9569 8.37391C45.6001 8.44597 45.2722 8.41715 44.9696 8.28743C44.6705 8.15771 44.4218 7.94511 44.2273 7.65685C44.0327 7.36858 43.8922 7.01906 43.8093 6.61548L42.8184 1.82305L41.1572 2.16537L42.1698 7.0659C42.2851 7.62802 42.4724 8.11807 42.7283 8.53245C42.9841 8.94684 43.2904 9.27114 43.6435 9.50535C44.0003 9.74317 44.4038 9.89812 44.8506 9.97018C45.2975 10.0459 45.7731 10.0278 46.2776 9.92334C46.9874 9.7756 47.5639 9.50535 48.018 9.10899C48.4684 8.71262 48.7711 8.21896 48.9296 7.63162C49.0846 7.04428 49.0882 6.38847 48.9404 5.6642L47.9279 0.763672H47.9243Z" fill="#BE1E28"></path><path d="M53.3618 7.26792L53.2212 5.3005L56.248 5.0843L56.1399 3.59973L53.1167 3.81593L52.969 1.77644L56.7417 1.50979L56.6336 0L51.2034 0.389158L51.8087 8.88942L57.4948 8.48224L57.3867 6.97965L53.3618 7.26792Z" fill="#BE1E28"></path><path d="M59.819 0.049126L59.6335 8.54736L61.3267 8.58431L61.5121 0.0860709L59.819 0.049126Z" fill="#BE1E28"></path><path d="M66.64 6.0101C66.5391 6.99021 66.1428 7.44423 65.4581 7.37216C65.2311 7.35054 65.0149 7.25685 64.8023 7.0947C64.5897 6.93615 64.4168 6.73797 64.2799 6.51456L63.2025 7.59556C63.4439 7.98472 63.761 8.29461 64.1537 8.52522C64.5465 8.75584 64.9645 8.89637 65.4041 8.94321C65.7176 8.97564 66.0022 8.97564 66.2653 8.936C66.5247 8.89997 66.7589 8.8279 66.9607 8.72341C67.1625 8.62251 67.3427 8.48559 67.4976 8.33064C67.6526 8.1721 67.7859 7.98112 67.8976 7.75772C68.0093 7.53791 68.0994 7.29649 68.1678 7.03344C68.2363 6.7704 68.2868 6.47853 68.3192 6.16144L68.8957 0.684378L67.2166 0.507812L66.6364 6.0137L66.64 6.0101Z" fill="#BE1E28"></path><path d="M78.9093 3.89163C78.6282 3.43401 78.2571 3.03764 77.7886 2.70253C77.3238 2.36742 76.7905 2.126 76.1888 1.97466C75.5762 1.82332 74.9781 1.78729 74.4015 1.86656C73.8214 1.94583 73.3025 2.126 72.8449 2.41066C72.3873 2.69172 71.9873 3.06647 71.6522 3.5385C71.3135 4.01054 71.072 4.54744 70.9207 5.15279C70.7694 5.75815 70.7333 6.3491 70.809 6.92563C70.8847 7.50217 71.0612 8.02105 71.3315 8.48227C71.6053 8.9435 71.9765 9.34707 72.4485 9.68939C72.9205 10.0317 73.4646 10.2803 74.0808 10.4317C74.6826 10.583 75.2663 10.6154 75.8356 10.5398C76.4014 10.4605 76.9166 10.2875 77.3815 10.0137C77.8427 9.73984 78.2463 9.36509 78.5886 8.88945C78.9309 8.41381 79.1831 7.8661 79.3381 7.24273C79.493 6.62295 79.5291 6.0212 79.4462 5.44467C79.3669 4.86453 79.1867 4.34565 78.9021 3.88803L78.9093 3.89163ZM77.6445 6.82474C77.5508 7.20669 77.3959 7.54901 77.1869 7.85529C76.9743 8.16158 76.7293 8.4066 76.4482 8.59037C76.1671 8.77414 75.8537 8.89666 75.5113 8.95431C75.169 9.01557 74.8195 9.00115 74.47 8.91107C73.9835 8.79216 73.58 8.56155 73.2557 8.22283C72.9277 7.88772 72.7115 7.48415 72.6034 7.02292C72.4953 6.55809 72.5026 6.07885 72.6287 5.57799C72.7512 5.08073 72.971 4.65193 73.2809 4.2952C73.5944 3.93847 73.9727 3.68624 74.4195 3.54211C74.8663 3.39797 75.3312 3.38716 75.814 3.50607C76.2861 3.62138 76.6824 3.84118 77.0031 4.16909C77.3274 4.49339 77.5436 4.88975 77.6625 5.35458C77.7778 5.82302 77.7706 6.31307 77.6445 6.82474Z" fill="#BE1E28"></path><path d="M84.5053 6.56513C84.7395 6.50027 84.9953 6.5327 85.2728 6.65522C85.7809 6.88223 86.2313 7.38669 86.6312 8.17582L88.0365 7.40471C87.5249 6.38497 86.7934 5.6679 85.8457 5.26073C85.3845 5.06254 84.9161 4.97967 84.4476 5.00489C83.9792 5.03011 83.5612 5.16344 83.1901 5.40486C82.8153 5.64628 82.5415 5.97058 82.3577 6.38136C82.2676 6.58315 82.2063 6.78854 82.1739 6.99033C82.1415 7.19211 82.1343 7.37949 82.1487 7.55245C82.1667 7.7218 82.21 7.89836 82.2748 8.07493C82.3433 8.25509 82.4189 8.41364 82.5054 8.55417C82.5919 8.6983 82.7 8.85325 82.8333 9.0154C82.9667 9.18115 83.0928 9.32168 83.2117 9.44419C83.3342 9.56671 83.4747 9.70363 83.6333 9.85497C83.8134 10.0207 83.954 10.1577 84.0621 10.2658C84.1702 10.3739 84.2639 10.4892 84.3575 10.6081C84.4476 10.727 84.5089 10.8351 84.5413 10.9288C84.5737 11.0225 84.5882 11.1233 84.5845 11.2314C84.5809 11.3359 84.5557 11.444 84.5017 11.5593C84.4296 11.7251 84.3251 11.8476 84.1882 11.9341C84.0513 12.017 83.8819 12.0602 83.6801 12.0566C83.4783 12.0566 83.2585 11.9954 83.0135 11.8909C82.855 11.8224 82.7036 11.7323 82.5559 11.617C82.4081 11.5053 82.2676 11.372 82.1379 11.2206C82.0082 11.0693 81.8857 10.8927 81.7776 10.6946C81.6695 10.4964 81.5758 10.2802 81.5073 10.0568L80.0732 10.7846C80.2894 11.3756 80.5993 11.8764 80.9992 12.298C81.3956 12.7196 81.8532 13.0439 82.3721 13.2745C82.6388 13.3934 82.909 13.4763 83.1865 13.534C83.4675 13.5916 83.7522 13.6096 84.0513 13.588C84.3503 13.5664 84.6278 13.5088 84.8908 13.4079C85.1539 13.307 85.3989 13.1448 85.6331 12.9214C85.8637 12.698 86.0547 12.4205 86.1988 12.0926C86.3394 11.7719 86.415 11.4657 86.4259 11.1774C86.4367 10.7162 86.2565 10.2477 85.889 9.76849C85.7304 9.5595 85.3809 9.18475 84.8404 8.64425C84.671 8.4749 84.5377 8.33797 84.4404 8.23348C84.3431 8.12898 84.253 8.01728 84.1594 7.89837C84.0657 7.77946 84.0044 7.67496 83.972 7.58487C83.9396 7.49479 83.9215 7.40471 83.9215 7.31102C83.9215 7.21734 83.9396 7.12365 83.9828 7.02636C84.0945 6.78494 84.2675 6.6336 84.5017 6.56874L84.5053 6.56513Z" fill="#BE1E28"></path><path d="M15.8366 29.5154C14.2584 28.6506 11.7829 27.7137 9.90555 27.7137C7.39043 27.7137 5.55273 28.838 5.55273 30.6036C5.55273 32.3692 7.69311 33.5331 10.583 34.6213C16.7014 37.0247 18.4671 39.8389 18.3554 43.1072C18.2437 47.8383 13.9989 50.5769 8.82095 50.5408C4.99061 50.5048 1.68996 48.8905 0 47.5393L1.91337 43.6369C3.37632 44.7251 5.93108 46.0403 8.48224 46.0403C10.81 46.0403 13.2891 45.1394 13.2891 43.1864C13.2891 41.01 10.2875 40.0335 7.13459 38.6426C3.04121 36.7653 0.45402 34.4772 0.45402 30.6108C0.45402 26.7444 3.64657 23.1411 9.46235 23.1411C12.5396 23.1411 16.0709 24.568 17.4581 25.2815L15.8438 29.5226L15.8366 29.5154Z" fill="#BE1E28"></path><path d="M44.2922 46.2595C42.6779 47.9855 39.6006 50.5366 33.8569 50.5366C26.1242 50.5366 20.0417 44.6452 20.0417 36.7611C20.0417 28.4662 26.798 23.1333 34.0803 23.1333C39.4853 23.1333 42.6022 25.5728 44.2165 27.0753L41.1392 30.7543C40.051 29.6661 37.6116 27.6771 34.156 27.6771C29.2014 27.6771 25.4828 31.6948 25.4828 36.7251C25.4828 41.7553 28.787 45.9208 34.2281 45.9208C37.2693 45.9208 40.0078 44.2308 41.2113 42.9552L44.2886 46.2595H44.2922Z" fill="#BE1E28"></path><path d="M45.683 50.0104L57.8839 23.3962H59.6496L71.7748 50.0104H66.1824L64.1933 45.7297H53.3077L51.3187 50.0104H45.6903H45.683ZM55.1058 41.5282H62.3521L58.7487 33.0424L55.1094 41.5282H55.1058Z" fill="#BE1E28"></path><path d="M90.6922 50.0106H74.7763V23.6594H79.8462V45.7334H90.6958V50.0142L90.6922 50.0106Z" fill="#BE1E28"></path><path d="M92.9082 50.0104L105.109 23.3962H106.875L119 50.0104H113.408L111.419 45.7297H100.533L98.5438 50.0104H92.9154H92.9082ZM102.331 41.5282H109.577L105.974 33.0424L102.335 41.5282H102.331Z" fill="#BE1E28"></path><path d="M73.8827 68.7012L74.0556 69.3101L74.9277 69.0615V72.6324H75.6411V68.2976H75.0213L73.8827 68.7012Z" fill="#BE1E28"></path><path d="M79.6949 68.2183C79.2445 68.2183 78.8769 68.3552 78.5887 68.629C78.3004 68.9029 78.1562 69.2596 78.1562 69.6956C78.1562 70.1316 78.3004 70.4884 78.585 70.7622C78.8733 71.0361 79.2409 71.173 79.6877 71.173H79.7633L78.776 72.6287H79.594L80.9632 70.5676C81.1362 70.3154 81.2227 70.0235 81.2227 69.6956C81.2227 69.2596 81.0822 68.9029 80.7975 68.629C80.5128 68.3552 80.1453 68.2183 79.6949 68.2183ZM80.2822 70.283C80.1309 70.4307 79.9327 70.5028 79.6949 70.5028C79.4571 70.5028 79.2589 70.4271 79.1039 70.2794C78.949 70.1316 78.8733 69.9371 78.8733 69.6992C78.8733 69.4614 78.949 69.2596 79.1039 69.1155C79.2589 68.9678 79.4571 68.8957 79.6949 68.8957C79.9327 68.8957 80.1309 68.9678 80.2822 69.1155C80.4336 69.2632 80.5128 69.4578 80.5128 69.6992C80.5128 69.9407 80.4372 70.1388 80.2822 70.283Z" fill="#BE1E28"></path><path d="M84.6423 69.7534H84.563L85.554 68.2976H84.7432L83.3667 70.3587C83.1938 70.6109 83.1073 70.9028 83.1073 71.2307C83.1073 71.6667 83.2514 72.0235 83.5325 72.2973C83.8172 72.5712 84.1883 72.7081 84.6423 72.7081C85.0963 72.7081 85.4603 72.5712 85.7449 72.2973C86.0296 72.0235 86.1701 71.6667 86.1701 71.2307C86.1701 70.7947 86.026 70.438 85.7449 70.1641C85.4603 69.8903 85.0927 69.7534 84.6423 69.7534ZM85.2333 71.8181C85.0819 71.9658 84.8837 72.0379 84.6459 72.0379C84.4081 72.0379 84.2027 71.9658 84.0514 71.8181C83.9 71.6703 83.8244 71.4758 83.8244 71.2343C83.8244 70.9929 83.9 70.7947 84.0514 70.6506C84.2027 70.5028 84.4009 70.4308 84.6459 70.4308C84.8909 70.4308 85.0819 70.5028 85.2333 70.6506C85.3846 70.7983 85.4639 70.9929 85.4639 71.2343C85.4639 71.4758 85.3882 71.6739 85.2333 71.8181Z" fill="#BE1E28"></path><path d="M90.7174 70.5065C90.5228 70.2903 90.267 70.1461 89.9535 70.0705L90.8291 68.903V68.2976H88.1662V68.9678H89.9787L89.0454 70.2002L89.3301 70.6254H89.4923C89.7409 70.6254 89.9355 70.6866 90.0796 70.8127C90.2237 70.9352 90.2958 71.1046 90.2958 71.3208C90.2958 71.537 90.2237 71.7064 90.0796 71.8325C89.9355 71.9586 89.7373 72.0199 89.4923 72.0199C89.0562 72.0199 88.7716 71.8361 88.6455 71.4613L88.0401 71.8145C88.1554 72.1099 88.3464 72.3297 88.6058 72.4847C88.8689 72.636 89.1643 72.7153 89.4958 72.7153C89.921 72.7153 90.2814 72.5892 90.5733 72.3442C90.8651 72.0991 91.0128 71.7568 91.0128 71.3244C91.0128 70.9965 90.9156 70.7263 90.7174 70.5101V70.5065Z" fill="#BE1E28"></path><path d="M28.7654 68.2469L27.1727 72.643H27.9583L28.2645 71.7566H30.1347L30.4446 72.643H31.2229L29.6338 68.2469H28.7654ZM28.5024 71.0792L29.2014 69.0937L29.8968 71.0792H28.5024Z" fill="#BE1E28"></path><path d="M35.7305 71.2485L33.6442 68.2469H33.0929V72.6394H33.8136V69.6594L35.8855 72.6394H36.4512V68.2469H35.7305V71.2485Z" fill="#BE1E28"></path><path d="M41.2869 71.2485L39.2005 68.2469H38.6492V72.6394H39.3699V69.6594L41.4454 72.6394H42.0075V68.2469H41.2869V71.2485Z" fill="#BE1E28"></path><path d="M45.9101 68.1642C45.2723 68.1642 44.7354 68.3876 44.2922 68.8272C43.849 69.2704 43.6292 69.8073 43.6292 70.4451C43.6292 71.0829 43.849 71.6198 44.2922 72.063C44.7354 72.5062 45.2723 72.726 45.9101 72.726C46.5478 72.726 47.0847 72.5062 47.528 72.063C47.9712 71.6198 48.191 71.0829 48.191 70.4451C48.191 69.8073 47.9712 69.2704 47.528 68.8272C47.0847 68.384 46.5478 68.1642 45.9101 68.1642ZM47.0163 71.5693C46.7172 71.8684 46.3497 72.0198 45.9101 72.0198C45.4705 72.0198 45.0993 71.8684 44.8002 71.5693C44.5012 71.2703 44.3498 70.8955 44.3498 70.4415C44.3498 69.9875 44.5012 69.6127 44.8002 69.3136C45.0993 69.0146 45.4668 68.8632 45.9101 68.8632C46.3533 68.8632 46.7172 69.0146 47.0163 69.3136C47.3154 69.6127 47.4667 69.9875 47.4667 70.4415C47.4667 70.8955 47.3154 71.2703 47.0163 71.5693Z" fill="#BE1E28"></path><path d="M65.1446 65.6565V71.238L60.5683 67.2311L55.9993 71.2561V65.6565H65.1446Z" fill="#32693C"></path><path d="M65.1446 71.2379V72.2324C65.1446 73.0648 64.9284 73.8359 64.5392 74.5025L60.5683 71.101L56.6155 74.5206C56.2191 73.8431 55.9993 73.0648 55.9993 72.2324V71.2559L60.5683 67.2274L65.1482 71.2343L65.1446 71.2379Z" fill="white"></path><path d="M64.5393 74.5061C64.0672 75.3385 63.3358 75.9979 62.4674 76.3978C61.8872 76.6681 61.2458 76.8158 60.5684 76.8158C60.0783 76.8158 59.5991 76.733 59.1487 76.5816C59.0766 76.5528 59.0046 76.5348 58.9397 76.5095C57.9344 76.1276 57.1308 75.4141 56.6155 74.5277L60.5684 71.1082L64.5393 74.5097V74.5061Z" fill="#B9272D"></path><path d="M54.749 64.3628V72.2793C54.749 74.081 55.5742 75.7349 56.911 76.8123C57.4443 77.2483 58.0713 77.5798 58.7487 77.8068C59.3361 78.005 59.9414 78.1059 60.5684 78.1059C61.9521 78.1059 63.2277 77.6158 64.2258 76.8123C65.5482 75.7457 66.3986 74.1062 66.3986 72.2793V64.3628H54.7526H54.749ZM65.1446 72.2361C65.1446 73.0684 64.9284 73.8396 64.5393 74.5062C64.0672 75.3385 63.3358 75.9979 62.4674 76.3979C61.8872 76.6682 61.2458 76.8159 60.5684 76.8159C60.0783 76.8159 59.5991 76.733 59.1487 76.5817C59.0766 76.5529 59.0046 76.5348 58.9397 76.5096C57.9344 76.1277 57.1308 75.4142 56.6155 74.5278C56.2192 73.8504 55.9994 73.072 55.9994 72.2397V65.66H65.1482V72.2397L65.1446 72.2361Z" fill="#BE9669"></path><path d="M64.2833 61.3828H56.8569V62.7413H64.2833V61.3828Z" fill="#BE9669"></path><path d="M60.5719 60.6657C61.0416 60.6657 61.4223 60.285 61.4223 59.8154C61.4223 59.3457 61.0416 58.965 60.5719 58.965C60.1023 58.965 59.7216 59.3457 59.7216 59.8154C59.7216 60.285 60.1023 60.6657 60.5719 60.6657Z" fill="#BE9669"></path><path d="M57.7113 60.6656C58.1809 60.6656 58.5617 60.2849 58.5617 59.8152C58.5617 59.3456 58.1809 58.9648 57.7113 58.9648C57.2416 58.9648 56.8609 59.3456 56.8609 59.8152C56.8609 60.2849 57.2416 60.6656 57.7113 60.6656Z" fill="#BE9669"></path><path d="M63.433 60.6657C63.9026 60.6657 64.2834 60.285 64.2834 59.8154C64.2834 59.3457 63.9026 58.965 63.433 58.965C62.9633 58.965 62.5826 59.3457 62.5826 59.8154C62.5826 60.285 62.9633 60.6657 63.433 60.6657Z" fill="#BE9669"></path></svg>