<svg width="547" height="170" viewBox="0 0 547 170" fill="none" xmlns="http://www.w3.org/2000/svg">
<path d="M502.644 165.974H498.178V151.677H502.644C504.563 151.677 506.172 152.188 507.471 153.211C508.77 154.234 509.419 156.115 509.419 158.855C509.419 163.602 507.161 165.974 502.644 165.974ZM508.595 149.249C506.946 148.366 504.962 147.924 502.644 147.924H493.981V169.728H502.644C505.002 169.728 507.006 169.286 508.655 168.402C510.304 167.519 511.548 166.257 512.387 164.619C513.227 162.981 513.646 161.05 513.646 158.826C513.646 156.602 513.216 154.67 512.357 153.032C511.498 151.394 510.244 150.133 508.595 149.249ZM245.236 105.618H216.187C216.187 105.618 216.143 105.06 216.068 104.081V68.5151C216.13 68.646 216.193 68.7918 216.26 68.9566C219.158 76.1568 229.463 76.5497 242.346 79.0367C254.763 81.4339 267.086 82.1871 267.05 94.073C267.015 105.132 256.787 105.851 245.236 105.618ZM216.128 22.9791H242.955C255.72 22.9791 263.676 29.2296 263.676 39.5244C263.676 49.6351 255.535 56.2533 243.14 56.2533C229.079 56.2533 216.128 50.0028 216.128 30.8842V22.9791ZM250.725 63.9742C270.521 62.6874 290.502 53.1281 290.502 31.4358C290.502 12.5007 274.961 6.84168e-06 248.32 6.84168e-06H190.227V128.684H250.54C277.551 128.684 296.052 117.286 296.052 97.0642C296.052 74.4526 274.591 66.364 250.725 63.9742ZM482.372 77.207C475.48 77.207 468.983 78.8878 463.271 81.8559L474 51.3336C478.623 37.9213 481.396 24.1417 482.321 17.711C483.245 24.1417 486.019 37.9213 490.641 51.3336L501.346 81.7893C495.665 78.8623 489.214 77.207 482.372 77.207ZM498.962 0.0730545H465.124L417.974 128.684H440.204C443.922 128.684 447.279 126.5 448.791 123.125C454.832 109.638 463.788 96.7148 482.321 96.7148C500.682 96.7148 509.477 109.627 515.48 123.106C516.987 126.491 520.35 128.684 524.076 128.684H546.298L498.962 0.0730545ZM432.664 162.468C432.048 163.567 431.212 164.427 430.155 165.048C429.097 165.669 427.934 165.979 426.665 165.979C425.415 165.979 424.261 165.669 423.204 165.048C422.146 164.427 421.304 163.567 420.68 162.468C420.055 161.37 419.742 160.152 419.742 158.814C419.742 157.477 420.055 156.264 420.68 155.174C421.304 154.085 422.146 153.23 423.204 152.609C424.261 151.989 425.415 151.678 426.665 151.678C427.934 151.678 429.097 151.989 430.155 152.609C431.212 153.23 432.048 154.085 432.664 155.174C433.279 156.264 433.587 157.477 433.587 158.814C433.587 160.152 433.279 161.37 432.664 162.468ZM432.39 149.385C430.727 148.411 428.818 147.924 426.665 147.924C424.511 147.924 422.607 148.411 420.954 149.385C419.3 150.359 418.016 151.674 417.103 153.326C416.19 154.979 415.733 156.808 415.733 158.814C415.733 160.82 416.19 162.655 417.103 164.317C418.016 165.979 419.3 167.293 420.954 168.258C422.607 169.223 424.511 169.705 426.665 169.705C428.818 169.705 430.727 169.223 432.39 168.258C434.053 167.293 435.341 165.979 436.255 164.317C437.168 162.655 437.625 160.82 437.625 158.814C437.625 156.808 437.168 154.979 436.255 153.326C435.341 151.674 434.053 150.359 432.39 149.385ZM334.488 37.6595C334.487 34.077 334.488 23.0496 334.488 23.0496H359.267C375.708 23.0496 384.944 30.2083 384.944 41.5889C384.944 52.2355 375.708 59.9448 361.484 59.9448C347.513 59.9448 334.491 53.1324 334.488 37.6595ZM365.548 72.2431C366.841 72.7939 368.688 73.1609 370.351 73.1609C389.747 73.1609 410.253 61.2296 410.253 37.5507C410.253 14.973 393.812 0.104932 364.809 0.104932H308.65V16.5162H308.629V128.627H334.488V73.3864C338.794 78.6376 345.148 83.3603 359.146 95.0196C380.274 112.616 383.676 128.627 383.676 128.627H411.504C406.701 95.5861 382.174 83.0731 365.548 72.2431ZM383.794 169.724H386.012C386.652 169.724 387.141 169.555 387.481 169.217C387.821 168.88 387.99 168.394 387.99 167.758V161.147H395.394C396.033 161.147 396.522 160.978 396.862 160.64C397.202 160.303 397.372 159.817 397.372 159.181V157.454H387.99V151.616H397.941C398.58 151.616 399.07 151.458 399.41 151.14C399.75 150.823 399.919 150.366 399.919 149.77V147.924H383.794V169.724ZM472.804 162.444C472.189 163.541 471.354 164.399 470.299 165.019C469.242 165.639 468.081 165.949 466.814 165.949C465.566 165.949 464.414 165.639 463.359 165.019C462.303 164.399 461.463 163.541 460.839 162.444C460.215 161.347 459.904 160.131 459.904 158.796C459.904 157.461 460.215 156.249 460.839 155.162C461.463 154.075 462.303 153.222 463.359 152.602C464.414 151.982 465.566 151.671 466.814 151.671C468.081 151.671 469.242 151.982 470.299 152.602C471.354 153.222 472.189 154.075 472.804 155.162C473.418 156.249 473.725 157.461 473.725 158.796C473.725 160.131 473.418 161.347 472.804 162.444ZM472.53 149.383C470.869 148.41 468.964 147.924 466.814 147.924C464.664 147.924 462.764 148.41 461.113 149.383C459.462 150.355 458.18 151.667 457.269 153.317C456.357 154.967 455.901 156.793 455.901 158.796C455.901 160.799 456.357 162.63 457.269 164.289C458.18 165.949 459.462 167.26 461.113 168.223C462.764 169.187 464.664 169.668 466.814 169.668C468.964 169.668 470.869 169.187 472.53 168.223C474.19 167.26 475.477 165.949 476.389 164.289C477.3 162.63 477.756 160.799 477.756 158.796C477.756 156.793 477.3 154.967 476.389 153.317C475.477 151.667 474.19 150.355 472.53 149.383ZM530.556 5.47285H532.693C533.013 5.47285 533.284 5.51605 533.505 5.60297C533.726 5.68937 533.894 5.82387 534.011 6.00594C534.127 6.18801 534.185 6.41199 534.185 6.67789C534.185 6.94379 534.124 7.16778 534.002 7.34985C533.88 7.53166 533.694 7.66769 533.444 7.75718C533.194 7.84693 532.885 7.89141 532.519 7.89141H530.556V5.47285ZM530.556 9.33921H532.554C532.879 9.33921 533.148 9.38139 533.361 9.46497C533.573 9.5488 533.732 9.68046 533.837 9.85945C533.941 10.0387 534.005 10.2755 534.028 10.5705L534.098 11.5413C534.121 11.8594 534.156 12.1178 534.203 12.3171C534.249 12.5167 534.325 12.6887 534.43 12.8332H536.183C536.055 12.6368 535.962 12.4444 535.904 12.2567C535.846 12.0687 535.805 11.8306 535.782 11.5413L535.677 10.2755C535.642 9.85944 535.549 9.52565 535.398 9.27441C535.247 9.02291 535.024 8.83955 534.73 8.72383C534.536 8.6472 534.298 8.5914 534.026 8.55308C534.375 8.46333 534.676 8.34067 534.923 8.182C535.269 7.95956 535.52 7.68647 535.677 7.3627C535.834 7.0392 535.913 6.6779 535.913 6.27904C535.913 5.76473 535.785 5.33835 535.529 5.00044C535.273 4.66228 534.911 4.41078 534.443 4.2462C533.974 4.08137 533.415 3.99908 532.763 3.99908H528.881V12.8332H530.556V9.33921ZM545.175 159.576C544.422 158.694 543.558 158.08 542.584 157.735C541.609 157.39 540.455 157.093 539.123 156.843C539.008 156.824 538.882 156.805 538.747 156.785C538.612 156.767 538.476 156.738 538.342 156.699C537.28 156.488 536.43 156.287 535.794 156.095C535.156 155.903 534.601 155.62 534.128 155.246C533.655 154.872 533.419 154.388 533.419 153.793C533.419 153.045 533.776 152.503 534.49 152.168C535.204 151.832 536.035 151.664 536.981 151.664C538.486 151.664 540.001 152.029 541.527 152.757C541.951 152.969 542.338 153.074 542.685 153.074C543.264 153.074 543.756 152.786 544.162 152.21L545.32 150.628C544.123 149.727 542.921 149.051 541.715 148.6C540.508 148.149 539.075 147.924 537.415 147.924C535.253 147.924 533.37 148.408 531.769 149.377C530.166 150.345 529.365 151.952 529.365 154.196C529.365 155.749 529.819 156.963 530.726 157.836C531.633 158.709 532.594 159.303 533.607 159.619C534.621 159.936 535.899 160.248 537.444 160.554C538.544 160.766 539.408 160.967 540.036 161.159C540.663 161.351 541.189 161.633 541.614 162.007C542.038 162.382 542.251 162.876 542.251 163.489C542.251 164.218 541.927 164.818 541.281 165.288C540.633 165.758 539.606 165.992 538.197 165.992C537.367 165.992 536.478 165.849 535.533 165.561C534.587 165.273 533.68 164.909 532.811 164.468C532.367 164.237 531.971 164.122 531.624 164.122C531.064 164.122 530.591 164.41 530.205 164.986L529.192 166.51C530.582 167.546 531.942 168.338 533.274 168.884C534.606 169.431 536.266 169.704 538.255 169.704C540.726 169.704 542.685 169.157 544.133 168.064C545.581 166.971 546.305 165.369 546.305 163.259C546.305 161.686 545.928 160.459 545.175 159.576ZM146.25 14.7647V128.684H157.393C165.522 128.684 172.111 122.136 172.111 114.059V0.139651H160.968C152.84 0.139651 146.25 6.68741 146.25 14.7647ZM526.307 5.13905C526.906 4.11891 527.729 3.31401 528.776 2.7246C529.823 2.1352 530.983 1.84023 532.257 1.84023C533.525 1.84023 534.681 2.1352 535.725 2.7246C536.769 3.31401 537.589 4.11891 538.186 5.13905C538.782 6.1592 539.08 7.28479 539.08 8.5158C539.08 9.74682 538.782 10.8693 538.186 11.8838C537.589 12.8983 536.771 13.6973 535.73 14.2808C534.688 14.8648 533.531 15.1564 532.257 15.1564C530.983 15.1564 529.823 14.8648 528.776 14.2808C527.729 13.6973 526.906 12.8983 526.307 11.8838C525.708 10.8693 525.408 9.74682 525.408 8.5158C525.408 7.28479 525.708 6.1592 526.307 5.13905ZM527.869 15.7504C529.195 16.4931 530.658 16.8644 532.257 16.8644C533.851 16.8644 535.311 16.4931 536.637 15.7504C537.963 15.0078 539.009 13.9979 539.774 12.7203C540.538 11.4433 540.921 10.0415 540.921 8.5158C540.921 6.98417 540.538 5.57982 539.774 4.30252C539.009 3.02522 537.963 2.01537 536.637 1.27244C535.311 0.529767 533.851 0.158423 532.257 0.158423C530.658 0.158423 529.195 0.529767 527.869 1.27244C526.542 2.01537 525.494 3.02522 524.723 4.30252C523.953 5.57982 523.567 6.98417 523.567 8.5158C523.567 10.0415 523.953 11.4433 524.723 12.7203C525.494 13.9979 526.542 15.0078 527.869 15.7504ZM39.8582 0.106219H0L74.6555 128.684L83.2863 113.78C90.2841 101.696 90.2714 86.8222 83.2529 74.7496L39.8582 0.106219ZM88.2175 24.2225L88.1927 64.2717H91.2711C111.072 64.2717 127.123 48.322 127.123 28.6474V0.104932H112.505C99.0971 0.104932 88.2258 10.9002 88.2175 24.2225Z" fill="#004349"/>
</svg>
